<svg width="51" height="49" viewBox="0 0 51 49" fill="none" xmlns="http://www.w3.org/2000/svg">
<path d="M48.875 38.7917C48.875 39.8746 48.4272 40.9132 47.6302 41.679C46.8332 42.4448 45.7522 42.875 44.625 42.875H6.375C5.24783 42.875 4.16683 42.4448 3.3698 41.679C2.57277 40.9132 2.125 39.8746 2.125 38.7917V16.3333C2.125 15.2504 2.57277 14.2118 3.3698 13.446C4.16683 12.6802 5.24783 12.25 6.375 12.25H14.875L19.125 6.125H31.875L36.125 12.25H44.625C45.7522 12.25 46.8332 12.6802 47.6302 13.446C48.4272 14.2118 48.875 15.2504 48.875 16.3333V38.7917Z" stroke="white" stroke-width="2" stroke-linecap="round" stroke-linejoin="round"/>
<path d="M25.5 34.7083C30.1944 34.7083 34 31.052 34 26.5417C34 22.0313 30.1944 18.375 25.5 18.375C20.8056 18.375 17 22.0313 17 26.5417C17 31.052 20.8056 34.7083 25.5 34.7083Z" stroke="white" stroke-width="2" stroke-linecap="round" stroke-linejoin="round"/>
</svg>
