<svg width="90" height="92" viewBox="0 0 90 92" fill="none" xmlns="http://www.w3.org/2000/svg">
<path d="M60 61.3333L45 46L30 61.3333" stroke="black" stroke-width="2" stroke-linecap="round" stroke-linejoin="round"/>
<path d="M45 46V80.5" stroke="black" stroke-width="2" stroke-linecap="round" stroke-linejoin="round"/>
<path d="M76.4625 70.495C80.12 68.4567 83.0093 65.2314 84.6745 61.328C86.3396 57.4247 86.6858 53.0657 85.6582 48.939C84.6307 44.8122 82.288 41.1528 79 38.5382C75.7119 35.9236 71.6657 34.5028 67.5 34.5H62.775C61.6399 30.0121 59.5243 25.8456 56.5873 22.3138C53.6502 18.782 49.9681 15.9767 45.8178 14.109C41.6675 12.2412 37.157 11.3595 32.6254 11.5302C28.0938 11.7009 23.659 12.9195 19.6544 15.0944C15.6498 17.2693 12.1796 20.3439 9.5048 24.087C6.82997 27.8302 5.02006 32.1445 4.21115 36.7057C3.40223 41.2668 3.61537 45.956 4.83452 50.4208C6.05368 54.8856 8.24713 59.0098 11.25 62.4833" stroke="black" stroke-width="2" stroke-linecap="round" stroke-linejoin="round"/>
<path d="M60 61.3333L45 46L30 61.3333" stroke="black" stroke-width="2" stroke-linecap="round" stroke-linejoin="round"/>
</svg>
