<svg width="40" height="40" viewBox="0 0 40 40" fill="none" xmlns="http://www.w3.org/2000/svg">
<path d="M20 40C31.0469 40 40 31.0469 40 20C40 8.95313 31.0469 0 20 0C8.95313 0 0 8.95313 0 20C0 31.0469 8.95313 40 20 40ZM18.125 26.875V21.875H13.125C12.0859 21.875 11.25 21.0391 11.25 20C11.25 18.9609 12.0859 18.125 13.125 18.125H18.125V13.125C18.125 12.0859 18.9609 11.25 20 11.25C21.0391 11.25 21.875 12.0859 21.875 13.125V18.125H26.875C27.9141 18.125 28.75 18.9609 28.75 20C28.75 21.0391 27.9141 21.875 26.875 21.875H21.875V26.875C21.875 27.9141 21.0391 28.75 20 28.75C18.9609 28.75 18.125 27.9141 18.125 26.875Z" fill="black"/>
</svg>
